<svg xmlns="http://www.w3.org/2000/svg" width="45" height="27" viewBox="0 0 45 27">
    <g fill="none" fill-rule="evenodd">
        <path fill="#FFF" d="M-412-743H612v2893H-412z"/>
        <path fill="#F8F4FF" d="M-412-194H612v395H-412z"/>
        <g>
            <rect width="42.5" height="24.5" x="1.25" y="1.25" stroke="#530050" stroke-width="2.5" rx="3"/>
            <circle cx="35.5" cy="8.5" r="2.5" fill="#F8E71C"/>
            <rect width="35" height="19" x="5" y="4" fill="#F59D15" rx="3"/>
            <path fill="#530050" d="M16.917 10.549v2.818h1.682c.483 0 .858-.124 1.127-.371.269-.248.403-.592.403-1.032 0-.436-.14-.78-.419-1.034-.28-.254-.656-.381-1.13-.381h-1.663zm0 4.29v3.32H15V9h3.847c1.007 0 1.8.262 2.38.787.58.525.87 1.242.87 2.152 0 .592-.147 1.122-.441 1.59a2.499 2.499 0 0 1-1.222 1.013l1.93 3.618h-2.172l-1.707-3.32h-1.568zm10.969-3.795c.888 0 1.587.32 2.094.958.508.64.762 1.524.762 2.654 0 1.125-.252 2.009-.755 2.65-.504.641-1.194.962-2.07.962-.499 0-.933-.104-1.3-.311a1.9 1.9 0 0 1-.813-.87h-.115v3.396h-1.847v-9.325h1.79v1.15h.115c.19-.394.474-.703.85-.928a2.47 2.47 0 0 1 1.289-.336zm-.629 5.681c.5 0 .889-.183 1.168-.549.28-.366.42-.873.42-1.52 0-.643-.141-1.148-.423-1.514-.281-.366-.667-.55-1.158-.55-.491 0-.88.186-1.165.556-.286.37-.429.875-.429 1.514 0 .64.142 1.143.426 1.51.283.369.67.553 1.161.553z"/>
        </g>
    </g>
</svg>
