<svg xmlns="http://www.w3.org/2000/svg" width="45" height="46" viewBox="0 0 45 46">
    <g fill="none" fill-rule="evenodd">
        <path fill="#7B2973" d="M35.12 0H0v46h35.12c5.457 0 9.88-4.383 9.88-9.79V9.79C45 4.382 40.577 0 35.12 0"/>
        <path fill="#FFFFFE" d="M10.264 24.787H7.72v4.382h2.544c1.233 0 2.016-.877 2.016-2.18 0-1.304-.783-2.202-2.016-2.202m.137 7.19h-2.68V38H5V22h5.401C13.278 22 15 24.27 15 26.989s-1.722 4.989-4.599 4.989M31 30l1.639 7.808c.312.09.695.163 1.043.192L34 33.028 31 30z"/>
        <path fill="#FFFFFE" d="M30.4 30.07a.768.768 0 0 1 .169-.697.849.849 0 0 1 1.215-.066l2.657 2.447.382-5.715a.786.786 0 0 1 .389-.629.866.866 0 0 1 .495-.119c.303.019.57.196.698.463l3.533 6.567C40 31.552 40 30.71 40 29.773c0-2.64.021-4.552-1.485-6.098C37.47 22.601 36.194 22 34.5 22c-1.694 0-2.99.601-4.036 1.675C28.958 25.221 29 27.132 29 29.773c0 2.642-.042 4.553 1.464 6.099.458.47.964.85 1.531 1.128l-1.594-6.93z"/>
        <path fill="#FFFFFE" d="M38.749 37.245c.658-.687 1.034-1.443 1.251-2.294L35.788 27 35 39c1.551-.096 2.751-.715 3.749-1.755M22.51 24.787h-2.673v4.224h2.673c1.245 0 2.061-.876 2.061-2.112 0-1.236-.816-2.112-2.06-2.112zM24.714 38l-2.836-6.382h-2.041V38H17V22h5.694c2.959 0 4.714 2.225 4.714 4.899 0 2.247-1.245 3.64-2.653 4.202L28 38h-3.286zM10.031 18l-2.224-3.64-1.118 1.236V18H5v-8h1.69v3.483L9.74 10h2.054l-2.868 3.18L12 18zM15.006 11.393h-1.459v2.113h1.459c.679 0 1.124-.439 1.124-1.057 0-.618-.445-1.056-1.124-1.056zM16.208 18l-1.547-3.191h-1.114V18H12v-8h3.106c1.614 0 2.571 1.112 2.571 2.45 0 1.123-.679 1.82-1.447 2.1L18 18h-1.792zM19 18v-8h5v1.393h-3.518v1.877h2.996v1.393h-2.996v1.944H24V18zM29.037 11.888c-.278-.326-.65-.495-1.207-.495h-1.218v5.214h1.218c.557 0 .929-.169 1.207-.495.302-.36.348-.932.348-2.146 0-1.213-.046-1.719-.348-2.078m1.125 5.348c-.545.528-1.322.764-2.18.764H25v-8h2.981c.859 0 1.636.236 2.181.764.928.899.835 2 .835 3.202 0 1.203.093 2.371-.835 3.27M32 18h2v-8h-2zM37.18 11.393V18h-1.36v-6.607H34V10h5v1.393z"/>
    </g>
</svg>
