<svg xmlns="http://www.w3.org/2000/svg" width="172" height="212" viewBox="0 0 172 212">
    <defs>
        <filter id="a" width="114.6%" height="111.8%" x="-7.3%" y="-5.9%" filterUnits="objectBoundingBox">
            <feOffset dy="2" in="SourceAlpha" result="shadowOffsetOuter1"/>
            <feGaussianBlur in="shadowOffsetOuter1" result="shadowBlurOuter1" stdDeviation="2"/>
            <feColorMatrix in="shadowBlurOuter1" result="shadowMatrixOuter1" values="0 0 0 0 0.738307823 0 0 0 0 0.738307823 0 0 0 0 0.738307823 0 0 0 0.486413043 0"/>
            <feMerge>
                <feMergeNode in="shadowMatrixOuter1"/>
                <feMergeNode in="SourceGraphic"/>
            </feMerge>
        </filter>
    </defs>
    <g fill="none" fill-rule="evenodd" filter="url(#a)" transform="translate(4 2)">
        <path fill="#8A2785" d="M160.99 200H25.01a3.007 3.007 0 0 1-3.01-3.003V12.003A3.008 3.008 0 0 1 25.01 9h135.98a3.008 3.008 0 0 1 3.01 3.003v184.994a3.008 3.008 0 0 1-3.01 3.003"/>
        <path fill="#E3D7EB" d="M29 193h128V17H29z"/>
        <rect width="64" height="17" x="64" fill="#8A2785" rx="8"/>
        <path fill="#B4B3AF" d="M154 193h-.167V86.717L124 56h.003l.163.168L154 86.885V193"/>
        <path fill="#AFAEAB" d="M146 193h-.167V78.81L116 48h.003L146 78.98V193"/>
        <path fill="#FFFFFE" d="M128 58.97V204H0V28h97.617L128 58.97"/>
        <path fill="#E7E4DF" d="M127 59H97V28l30 31"/>
        <path fill="#F59D15" d="M20 74h89v-6H20z"/>
        <path fill="#BBBAB5" d="M20 85h89v-2H20zM20 91h89v-2H20zM20 97h45v-2H20zM20 103h89v-2H20zM20 109h89v-2H20zM20 115h45v-2H20zM20 121h69v-2H20zM20 127h69v-2H20zM20 133h89v-2H20zM20 139h89v-2H20zM20 145h89v-2H20zM20 151h44v-2H20zM20 157h89v-2H20zM20 163h89v-2H20zM20 170h89v-2H20z"/>
        <path fill="#009D50" d="M107.047 179l-9.502 9.924-3.592-3.748L92 187.213 97.545 193l1.946-2.038 9.509-9.924-1.953-2.038"/>
    </g>
</svg>
