<svg xmlns="http://www.w3.org/2000/svg" xmlns:xlink="http://www.w3.org/1999/xlink" width="48" height="40" viewBox="0 0 48 40">
    <defs>
        <path id="b" d="M0 0h31v13H0z"/>
        <filter id="a" width="145.2%" height="207.7%" x="-22.6%" y="-38.5%" filterUnits="objectBoundingBox">
            <feOffset dy="2" in="SourceAlpha" result="shadowOffsetOuter1"/>
            <feGaussianBlur in="shadowOffsetOuter1" result="shadowBlurOuter1" stdDeviation="2"/>
            <feColorMatrix in="shadowBlurOuter1" values="0 0 0 0 0 0 0 0 0 0 0 0 0 0 0 0 0 0 0.124235734 0"/>
        </filter>
    </defs>
    <g fill="none" fill-rule="evenodd">
        <path fill="#FFF" d="M-660-736H364v2893H-660z"/>
        <path fill="#F8F4FF" d="M-660-187H364v395H-660z"/>
        <g>
            <rect width="16" height="18" x="5" y="6" fill="#F59D15" rx="3"/>
            <path fill="#530050" d="M13.36 35.619c1.427 0 2.591-1.18 2.591-2.636 0-1.457-1.164-2.636-2.592-2.636-1.418 0-2.583 1.18-2.583 2.636 0 1.456 1.165 2.636 2.583 2.636m9.282-9.222H3.377V3.877c0-.25.201-.446.438-.446h18.389c.245 0 .437.196.437.447v22.519zm0 10.17a.444.444 0 0 1-.437.446H3.814a.45.45 0 0 1-.437-.447v-7.488h19.264v7.488zM22.204.75H3.814C2.125.75.75 2.153.75 3.878v32.688c0 1.725 1.375 3.128 3.065 3.128h18.389c1.69 0 3.064-1.403 3.064-3.128V3.878c0-1.725-1.374-3.128-3.064-3.128z"/>
            <circle cx="16.5" cy="10.5" r="2.5" fill="#F8E71C"/>
            <g transform="translate(13 20)">
                <use fill="#000" filter="url(#a)" xlink:href="#b"/>
                <use fill="#F59D15" xlink:href="#b"/>
            </g>
            <path fill="#FFF" d="M20.221 22.954h2.94c.726 0 1.314.224 1.765.671.45.448.676 1.036.676 1.766 0 .722-.233 1.307-.698 1.753-.466.446-1.071.669-1.817.669h-1.391V30H20.22v-7.046zm1.475 1.211v2.451h1.07c.426 0 .755-.105.988-.315.233-.21.349-.512.349-.905 0-.398-.116-.702-.347-.914-.23-.211-.56-.317-.986-.317h-1.074zm6.87 4.849c.329 0 .604-.093.825-.279a.864.864 0 0 0 .332-.688v-.396l-1.089.069c-.605.042-.908.259-.908.65 0 .198.077.355.232.47.155.116.357.174.608.174zm-.469 1.069c-.52 0-.945-.148-1.272-.444-.327-.297-.49-.689-.49-1.177 0-.485.18-.867.539-1.145.36-.278.875-.437 1.545-.476l1.304-.078v-.44c0-.224-.078-.398-.234-.52-.156-.122-.381-.183-.674-.183-.527 0-.851.166-.972.498h-1.308c.045-.498.28-.893.705-1.184.425-.291.976-.437 1.653-.437.71 0 1.259.16 1.648.479.389.319.584.768.584 1.347V30h-1.377v-.703h-.088a1.43 1.43 0 0 1-.625.578c-.277.139-.59.208-.938.208zm4.946 1.875c-.302 0-.483-.005-.542-.015v-1.142c.033.006.14.01.323.01.27 0 .482-.047.634-.14a.728.728 0 0 0 .318-.442l.049-.195-1.89-5.42h1.567l1.133 4.082h.088l1.133-4.082h1.504l-1.856 5.469c-.227.69-.526 1.175-.896 1.455s-.89.42-1.565.42z"/>
        </g>
    </g>
</svg>
