<svg xmlns="http://www.w3.org/2000/svg" xmlns:xlink="http://www.w3.org/1999/xlink" width="29" height="35" viewBox="0 0 29 35">
    <defs>
        <path id="a" d="M15.701 10.85H8.044A1.294 1.294 0 0 1 6.76 9.54c0-.724.574-1.308 1.283-1.308H15.7c.709 0 1.282.584 1.282 1.308 0 .724-.573 1.309-1.282 1.309zm5.064 5.487H8.044c-.709 0-1.283-.593-1.283-1.309 0-.724.574-1.308 1.283-1.308h12.72c.709 0 1.283.584 1.283 1.308 0 .716-.574 1.309-1.282 1.309zm.061 5.478H8.106a1.295 1.295 0 0 1-1.283-1.308c0-.724.574-1.309 1.282-1.309h12.721c.709 0 1.283.585 1.283 1.309s-.574 1.308-1.283 1.308zm-.061 5.487H8.044c-.709 0-1.283-.593-1.283-1.308 0-.724.574-1.309 1.283-1.309h12.72c.709 0 1.283.585 1.283 1.309 0 .715-.574 1.308-1.282 1.308zM3.825 3.034c-.231 0-.427.2-.427.436v28.403c0 .236.196.436.427.436h21.282c.232 0 .428-.2.428-.436V3.47a.438.438 0 0 0-.428-.436H3.825zm21.282 31.892H3.825c-1.65 0-2.992-1.37-2.992-3.053V3.47C.833 1.786 2.175.417 3.825.417h21.282c1.65 0 2.992 1.37 2.992 3.053v28.403c0 1.684-1.342 3.053-2.992 3.053z"/>
    </defs>
    <g fill="none" fill-rule="evenodd">
        <path fill="#FFF" d="M-871-739H153v2893H-871z"/>
        <path fill="#F8F4FF" d="M-871-190H153v395H-871z"/>
        <g>
            <rect width="19" height="25" x="5" y="5" fill="#F59D15" rx="3"/>
            <mask id="b" fill="#fff">
                <use xlink:href="#a"/>
            </mask>
            <use fill="#530050" xlink:href="#a"/>
            <g mask="url(#b)">
                <path fill="#530050" d="M-6-3h41v41H-6z"/>
            </g>
        </g>
        <path fill="#530050" fill-rule="nonzero" d="M3.25 5.005a1.238 1.238 0 0 1 .283-1.762 1.323 1.323 0 0 1 1.814.275L26.75 31.995a1.238 1.238 0 0 1-.283 1.762c-.579.411-1.391.288-1.814-.275L3.25 5.005z"/>
    </g>
</svg>
